<svg width="22" height="25" viewBox="0 0 22 25" fill="none" xmlns="http://www.w3.org/2000/svg">
<path d="M5.50004 11.4584C5.74316 11.4584 5.97631 11.5682 6.14822 11.7635C6.32013 11.9589 6.41671 12.2238 6.41671 12.5001V19.7917C6.41671 20.068 6.32013 20.333 6.14822 20.5283C5.97631 20.7237 5.74316 20.8334 5.50004 20.8334C5.25693 20.8334 5.02377 20.7237 4.85186 20.5283C4.67995 20.333 4.58337 20.068 4.58337 19.7917V12.5001C4.58337 12.2238 4.67995 11.9589 4.85186 11.7635C5.02377 11.5682 5.25693 11.4584 5.50004 11.4584ZM10.0834 5.20841V19.7917C10.0834 20.068 10.18 20.333 10.3519 20.5283C10.5238 20.7237 10.7569 20.8334 11 20.8334C11.2432 20.8334 11.4763 20.7237 11.6482 20.5283C11.8201 20.333 11.9167 20.068 11.9167 19.7917V5.20841C11.9167 4.93215 11.8201 4.6672 11.6482 4.47185C11.4763 4.27649 11.2432 4.16675 11 4.16675C10.7569 4.16675 10.5238 4.27649 10.3519 4.47185C10.18 4.6672 10.0834 4.93215 10.0834 5.20841ZM15.5834 8.85425V19.7917C15.5834 20.068 15.6799 20.333 15.8519 20.5283C16.0238 20.7237 16.2569 20.8334 16.5 20.8334C16.7432 20.8334 16.9763 20.7237 17.1482 20.5283C17.3201 20.333 17.4167 20.068 17.4167 19.7917V8.85425C17.4167 8.57798 17.3201 8.31303 17.1482 8.11768C16.9763 7.92233 16.7432 7.81258 16.5 7.81258C16.2569 7.81258 16.0238 7.92233 15.8519 8.11768C15.6799 8.31303 15.5834 8.57798 15.5834 8.85425Z" fill="white"/>
</svg>
