<svg width="27" height="22" viewBox="0 0 27 22" fill="none" xmlns="http://www.w3.org/2000/svg">
<path d="M2.57963 19.8981C2.79059 20.0699 3.07669 20.1665 3.375 20.1665C3.67331 20.1665 3.95941 20.0699 4.17038 19.8981L7.77038 16.9648C9.48398 17.8515 11.4701 18.3259 13.5 18.3333C18.3656 18.3333 22.7554 15.5833 24.6803 11.3172C24.7736 11.1126 24.7736 10.8875 24.6803 10.6828C23.9227 8.96119 22.6742 7.41074 21.0375 6.1591L24.426 3.3981C24.5335 3.31354 24.6192 3.21239 24.6781 3.10055C24.7371 2.98871 24.7681 2.86843 24.7694 2.74671C24.7707 2.625 24.7422 2.50429 24.6857 2.39164C24.6291 2.27898 24.5456 2.17664 24.4399 2.09057C24.3343 2.0045 24.2087 1.93643 24.0704 1.89034C23.9322 1.84425 23.7841 1.82106 23.6347 1.82212C23.4853 1.82317 23.3377 1.84846 23.2004 1.8965C23.0632 1.94455 22.939 2.01438 22.8353 2.10193L19.2352 5.03526C17.52 4.14772 15.5318 3.67329 13.5 3.66668C8.63438 3.66668 4.24463 6.41668 2.31975 10.6828C2.22641 10.8875 2.22641 11.1126 2.31975 11.3172C3.07892 13.0393 4.32938 14.5898 5.96812 15.8409L2.57963 18.6019C2.36872 18.7738 2.25024 19.0069 2.25024 19.25C2.25024 19.4931 2.36872 19.7262 2.57963 19.8981ZM19.4243 7.46901C20.7377 8.44628 21.762 9.65356 22.4201 11C20.7574 14.3523 17.2946 16.5 13.5 16.5C12.0692 16.4948 10.6633 16.1939 9.414 15.6255L11.2286 14.1469C11.9144 14.4839 12.6992 14.6635 13.5 14.6667C14.6935 14.6667 15.8381 14.2804 16.682 13.5927C17.5259 12.9051 18 11.9725 18 11C17.9961 10.3475 17.7757 9.70803 17.3621 9.14926L19.4243 7.46901ZM11.3344 11.4684C11.281 11.316 11.2526 11.1585 11.25 11C11.25 10.5138 11.4871 10.0475 11.909 9.70365C12.331 9.35983 12.9033 9.16668 13.5 9.16668C13.6945 9.16883 13.8878 9.19195 14.0749 9.23543L11.3344 11.4684ZM15.6656 10.5316C15.719 10.684 15.7474 10.8415 15.75 11C15.75 11.4862 15.5129 11.9526 15.091 12.2964C14.669 12.6402 14.0967 12.8333 13.5 12.8333C13.3055 12.8312 13.1122 12.8081 12.9251 12.7646L15.6656 10.5316ZM4.57988 11C6.24263 7.64776 9.70538 5.50001 13.5 5.50001C14.9308 5.50527 16.3367 5.80615 17.586 6.37451L15.7714 7.8531C15.0856 7.51613 14.3008 7.33654 13.5 7.33335C12.3065 7.33335 11.1619 7.71966 10.318 8.40729C9.47411 9.09492 9 10.0276 9 11C9.00392 11.6525 9.22432 12.292 9.63788 12.8508L7.57575 14.531C6.26228 13.5538 5.23796 12.3465 4.57988 11Z" fill="white"/>
</svg>
