<svg width="17" height="15" viewBox="0 0 17 15" fill="none" xmlns="http://www.w3.org/2000/svg">
<path d="M15.5833 3.75001H8.93776L7.72084 1.59563C7.66174 1.49126 7.5707 1.40357 7.45803 1.34249C7.34537 1.28141 7.21558 1.24937 7.08334 1.25001H1.41668C1.22882 1.25001 1.04865 1.31586 0.91581 1.43307C0.782971 1.55028 0.708344 1.70925 0.708344 1.87501V13.125C0.708344 13.2908 0.782971 13.4497 0.91581 13.567C1.04865 13.6842 1.22882 13.75 1.41668 13.75H15.5833C15.7712 13.75 15.9514 13.6842 16.0842 13.567C16.2171 13.4497 16.2917 13.2908 16.2917 13.125V4.37501C16.2917 4.20925 16.2171 4.05028 16.0842 3.93307C15.9514 3.81586 15.7712 3.75001 15.5833 3.75001ZM2.12501 2.50001H6.64559L7.35393 3.75001H2.12501V2.50001ZM14.875 12.5H2.12501V5.00001H14.875V12.5Z" fill="white"/>
</svg>
