<svg width="24" height="24" viewBox="0 0 24 24" fill="none" xmlns="http://www.w3.org/2000/svg">
<path d="M21.555 8.168L12.555 2.168C12.3906 2.05841 12.1975 1.99996 12 2C11.8028 2.00015 11.6101 2.0586 11.446 2.168L2.44599 8.168C2.26748 8.28703 2.13199 8.46031 2.05953 8.66225C1.98706 8.8642 1.98147 9.08409 2.04357 9.28946C2.10567 9.49482 2.23218 9.67477 2.4044 9.80272C2.57663 9.93067 2.78544 9.99983 2.99999 10H3.99999V21C3.99999 21.2652 4.10534 21.5196 4.29288 21.7071C4.48042 21.8946 4.73477 22 4.99999 22H19C19.2652 22 19.5196 21.8946 19.7071 21.7071C19.8946 21.5196 20 21.2652 20 21V10H21C21.2147 10.0003 21.4238 9.93141 21.5964 9.80361C21.7689 9.67582 21.8958 9.49588 21.9581 9.29041C22.0205 9.08495 22.015 8.86486 21.9426 8.66272C21.8702 8.46058 21.7346 8.28712 21.556 8.168H21.555ZM18 20H5.99999V8.2L12 4.2L18 8.2V20Z" fill="white"/>
</svg>
