<svg width="24" height="24" viewBox="0 0 24 24" fill="none" xmlns="http://www.w3.org/2000/svg">
<path d="M1.293 12.707C1.10553 12.5195 1.00021 12.2651 1.00021 12C1.00021 11.7348 1.10553 11.4805 1.293 11.293L7.293 5.29298C7.4816 5.11082 7.7342 5.01003 7.9964 5.01231C8.2586 5.01458 8.50941 5.11975 8.69482 5.30516C8.88023 5.49057 8.9854 5.74138 8.98767 6.00358C8.98995 6.26578 8.88916 6.51838 8.707 6.70698L4.414 11H22C22.2652 11 22.5196 11.1053 22.7071 11.2929C22.8946 11.4804 23 11.7348 23 12C23 12.2652 22.8946 12.5196 22.7071 12.7071C22.5196 12.8946 22.2652 13 22 13H4.414L8.707 17.293C8.88916 17.4816 8.98995 17.7342 8.98767 17.9964C8.9854 18.2586 8.88023 18.5094 8.69482 18.6948C8.50941 18.8802 8.2586 18.9854 7.9964 18.9877C7.7342 18.9899 7.4816 18.8891 7.293 18.707L1.293 12.707Z" fill="white"/>
</svg>
