<svg width="24" height="24" viewBox="0 0 24 24" fill="none" xmlns="http://www.w3.org/2000/svg">
<path d="M3 15.3C3 13.6198 3 12.7798 3.32698 12.138C3.6146 11.5735 4.07354 11.1146 4.63803 10.827C5.27976 10.5 6.11984 10.5 7.8 10.5H16.2C17.8802 10.5 18.7202 10.5 19.362 10.827C19.9265 11.1146 20.3854 11.5735 20.673 12.138C21 12.7798 21 13.6198 21 15.3V17.7C21 19.3802 21 20.2202 20.673 20.862C20.3854 21.4265 19.9265 21.8854 19.362 22.173C18.7202 22.5 17.8802 22.5 16.2 22.5H7.8C6.11984 22.5 5.27976 22.5 4.63803 22.173C4.07354 21.8854 3.6146 21.4265 3.32698 20.862C3 20.2202 3 19.3802 3 17.7V15.3Z" stroke="white" stroke-width="2"/>
<path d="M7.5 10.5L7.5 6C7.5 4.60218 7.5 3.90326 7.72836 3.35195C8.03284 2.61687 8.61686 2.03284 9.35195 1.72836C9.90326 1.5 10.6022 1.5 12 1.5C13.3978 1.5 14.0967 1.5 14.6481 1.72836C15.3831 2.03284 15.9672 2.61687 16.2716 3.35195C16.5 3.90326 16.5 4.60218 16.5 6V10.5H7.5Z" stroke="white" stroke-width="2"/>
</svg>
