<svg width="24" height="24" viewBox="0 0 24 24" fill="none" xmlns="http://www.w3.org/2000/svg">
<path d="M18 7C16.822 7.03497 15.668 7.34095 14.6274 7.89418C13.5868 8.44741 12.6878 9.23302 12 10.19C11.3122 9.23302 10.4132 8.44741 9.3726 7.89418C8.33204 7.34095 7.17797 7.03497 6 7C2.313 7 1 9.583 1 12C1 15.687 3.583 17 6 17C7.17797 16.965 8.33204 16.6591 9.3726 16.1058C10.4132 15.5526 11.3122 14.767 12 13.81C12.6878 14.767 13.5868 15.5526 14.6274 16.1058C15.668 16.6591 16.822 16.965 18 17C20.417 17 23 15.687 23 12C23 9.583 21.687 7 18 7ZM6 15C5.59398 15.0504 5.1818 15.0076 4.79485 14.8746C4.4079 14.7417 4.05639 14.5222 3.76708 14.2329C3.47777 13.9436 3.25829 13.5921 3.12536 13.2052C2.99243 12.8182 2.94956 12.406 3 12C2.94956 11.594 2.99243 11.1818 3.12536 10.7948C3.25829 10.4079 3.47777 10.0564 3.76708 9.76708C4.05639 9.47777 4.4079 9.25829 4.79485 9.12536C5.1818 8.99243 5.59398 8.94956 6 9C8.579 9 10.225 11.065 10.837 12C10.225 12.935 8.579 15 6 15ZM18 15C15.421 15 13.775 12.935 13.163 12C13.775 11.065 15.421 9 18 9C18.406 8.94956 18.8182 8.99243 19.2052 9.12536C19.5921 9.25829 19.9436 9.47777 20.2329 9.76708C20.5222 10.0564 20.7417 10.4079 20.8746 10.7948C21.0076 11.1818 21.0504 11.594 21 12C21.0504 12.406 21.0076 12.8182 20.8746 13.2052C20.7417 13.5921 20.5222 13.9436 20.2329 14.2329C19.9436 14.5222 19.5921 14.7417 19.2052 14.8746C18.8182 15.0076 18.406 15.0504 18 15Z" fill="white"/>
</svg>
