<svg width="24" height="24" viewBox="0 0 24 24" fill="none" xmlns="http://www.w3.org/2000/svg">
<path d="M20.5 4.60901C19.9525 3.94661 19.265 3.41387 18.4868 3.04918C17.7087 2.6845 16.8594 2.49694 16 2.50001C14.5296 2.45549 13.0981 2.9762 12 3.95501C10.9019 2.9762 9.47036 2.45549 8 2.50001C7.14065 2.49694 6.29131 2.6845 5.51317 3.04918C4.73503 3.41387 4.04746 3.94661 3.5 4.60901C2.547 5.76501 1.55 7.85801 2.211 11.269C3.266 16.716 11.177 21.186 11.511 21.369C11.6599 21.452 11.8275 21.4956 11.998 21.4956C12.1685 21.4956 12.3361 21.452 12.485 21.369C12.821 21.182 20.732 16.712 21.785 11.269C22.45 7.85801 21.453 5.76501 20.5 4.60901ZM19.826 10.889C19.08 14.74 13.658 18.322 12 19.34C9.664 17.93 4.858 14.39 4.179 10.889C3.666 8.24301 4.368 6.70601 5.048 5.88201C5.4076 5.44812 5.85878 5.0992 6.36916 4.86026C6.87953 4.62132 7.43646 4.4983 8 4.50001C8.60189 4.45487 9.20521 4.56647 9.75113 4.82392C10.2971 5.08137 10.7669 5.47589 11.115 5.96901C11.2008 6.12695 11.3274 6.25897 11.4816 6.35133C11.6359 6.44369 11.812 6.493 11.9918 6.49412C12.1715 6.49524 12.3483 6.44814 12.5036 6.35772C12.659 6.26729 12.7872 6.13686 12.875 5.98001C13.2224 5.48305 13.6933 5.08519 14.2413 4.82566C14.7893 4.56613 15.3954 4.4539 16 4.50001C16.5647 4.49726 17.123 4.61979 17.6347 4.85876C18.1463 5.09773 18.5986 5.44721 18.959 5.88201C19.637 6.70601 20.339 8.24301 19.826 10.889Z" fill="white"/>
</svg>
