<svg width="20" height="19" viewBox="0 0 20 19" fill="none" xmlns="http://www.w3.org/2000/svg">
<path d="M1.25 5.9375L10 9.5L18.75 5.9375M5.25 16.625H14.75C16.1501 16.625 16.8502 16.625 17.385 16.3661C17.8554 16.1384 18.2378 15.7751 18.4775 15.3282C18.75 14.8202 18.75 14.1551 18.75 12.825V6.175C18.75 4.84488 18.75 4.17981 18.4775 3.67177C18.2378 3.22489 17.8554 2.86156 17.385 2.63386C16.8502 2.375 16.1501 2.375 14.75 2.375H5.25C3.84987 2.375 3.1498 2.375 2.61502 2.63386C2.14462 2.86156 1.76217 3.22489 1.52248 3.67177C1.25 4.17981 1.25 4.84488 1.25 6.175V12.825C1.25 14.1551 1.25 14.8202 1.52248 15.3282C1.76217 15.7751 2.14462 16.1384 2.61502 16.3661C3.1498 16.625 3.84987 16.625 5.25 16.625Z" stroke="white" stroke-width="2" stroke-linejoin="round"/>
</svg>
