<svg width="24" height="24" viewBox="0 0 24 24" fill="none" xmlns="http://www.w3.org/2000/svg">
<path d="M12 23C11.4696 23 10.9609 22.7893 10.5858 22.4142C10.2107 22.0391 10 21.5304 10 21H14C14 21.5304 13.7893 22.0391 13.4142 22.4142C13.0391 22.7893 12.5304 23 12 23ZM20 6C20 5.60444 19.8827 5.21776 19.6629 4.88886C19.4432 4.55996 19.1308 4.30362 18.7654 4.15224C18.3999 4.00087 17.9978 3.96126 17.6098 4.03843C17.2219 4.1156 16.8655 4.30608 16.5858 4.58579C16.3061 4.86549 16.1156 5.22186 16.0384 5.60982C15.9613 5.99778 16.0009 6.39991 16.1522 6.76537C16.3036 7.13082 16.56 7.44318 16.8889 7.66294C17.2178 7.8827 17.6044 8 18 8C18.5304 8 19.0391 7.78929 19.4142 7.41421C19.7893 7.03914 20 6.53043 20 6ZM20.707 17.293L19 15.586V10H17V16C17.0001 16.2652 17.1055 16.5195 17.293 16.707L17.586 17H6.414L6.707 16.707C6.89455 16.5195 6.99994 16.2652 7 16V10C6.99705 9.26535 7.15668 8.53915 7.46744 7.87346C7.7782 7.20777 8.23239 6.61908 8.79745 6.14959C9.36252 5.68011 10.0245 5.34146 10.7358 5.15792C11.4472 4.97438 12.1903 4.9505 12.912 5.088L14.5 3.5C14.4477 3.46075 14.3914 3.42722 14.332 3.4C13.8994 3.2514 13.4533 3.14556 13 3.084V2C13 1.73478 12.8946 1.48043 12.7071 1.29289C12.5196 1.10536 12.2652 1 12 1C11.7348 1 11.4804 1.10536 11.2929 1.29289C11.1054 1.48043 11 1.73478 11 2V3.08C9.3354 3.32026 7.81295 4.15181 6.71118 5.42253C5.60941 6.69324 5.00197 8.31815 5 10V15.586L3.293 17.293C3.15319 17.4329 3.05798 17.611 3.01942 17.805C2.98085 17.9989 3.00065 18.2 3.07632 18.3827C3.15199 18.5654 3.28013 18.7215 3.44454 18.8314C3.60895 18.9413 3.80225 19 4 19H20C20.1978 19 20.391 18.9413 20.5555 18.8314C20.7199 18.7215 20.848 18.5654 20.9237 18.3827C20.9993 18.2 21.0192 17.9989 20.9806 17.805C20.942 17.611 20.8468 17.4329 20.707 17.293Z" fill="white"/>
</svg>
