<svg width="24" height="24" viewBox="0 0 24 24" fill="none" xmlns="http://www.w3.org/2000/svg">
<path d="M12 10C12.3956 10 12.7822 10.1173 13.1111 10.3371C13.44 10.5568 13.6964 10.8692 13.8478 11.2346C13.9991 11.6001 14.0387 12.0022 13.9616 12.3902C13.8844 12.7781 13.6939 13.1345 13.4142 13.4142C13.1345 13.6939 12.7781 13.8844 12.3902 13.9616C12.0022 14.0387 11.6001 13.9991 11.2346 13.8478C10.8692 13.6964 10.5568 13.44 10.3371 13.1111C10.1173 12.7822 10 12.3956 10 12C10 11.4696 10.2107 10.9609 10.5858 10.5858C10.9609 10.2107 11.4696 10 12 10ZM4 14C4.39556 14 4.78224 13.8827 5.11114 13.6629C5.44004 13.4432 5.69638 13.1308 5.84776 12.7654C5.99913 12.3999 6.03874 11.9978 5.96157 11.6098C5.8844 11.2219 5.69392 10.8655 5.41421 10.5858C5.13451 10.3061 4.77814 10.1156 4.39018 10.0384C4.00222 9.96126 3.60009 10.0009 3.23463 10.1522C2.86918 10.3036 2.55682 10.56 2.33706 10.8889C2.1173 11.2178 2 11.6044 2 12C2 12.5304 2.21071 13.0391 2.58579 13.4142C2.96086 13.7893 3.46957 14 4 14ZM20 10C19.6044 10 19.2178 10.1173 18.8889 10.3371C18.56 10.5568 18.3036 10.8692 18.1522 11.2346C18.0009 11.6001 17.9613 12.0022 18.0384 12.3902C18.1156 12.7781 18.3061 13.1345 18.5858 13.4142C18.8655 13.6939 19.2219 13.8844 19.6098 13.9616C19.9978 14.0387 20.3999 13.9991 20.7654 13.8478C21.1308 13.6964 21.4432 13.44 21.6629 13.1111C21.8827 12.7822 22 12.3956 22 12C22 11.4696 21.7893 10.9609 21.4142 10.5858C21.0391 10.2107 20.5304 10 20 10Z" fill="white"/>
</svg>
