<svg width="24" height="24" viewBox="0 0 24 24" fill="none" xmlns="http://www.w3.org/2000/svg">
<path d="M23 12C23 14.1756 22.3549 16.3023 21.1462 18.1113C19.9375 19.9202 18.2195 21.3301 16.2095 22.1627C14.1995 22.9952 11.9878 23.2131 9.85401 22.7886C7.72022 22.3642 5.76021 21.3166 4.22183 19.7782C2.68345 18.2398 1.6358 16.2798 1.21137 14.146C0.786929 12.0122 1.00477 9.80048 1.83733 7.79049C2.66989 5.78051 4.07979 4.06254 5.88873 2.85384C7.69767 1.64515 9.82441 1.00001 12 1.00001C14.0828 0.993056 16.124 1.583 17.882 2.70001L19.293 1.28901C19.4331 1.14896 19.6116 1.05367 19.806 1.01523C20.0003 0.976785 20.2017 0.996925 20.3845 1.07309C20.5674 1.14926 20.7235 1.27802 20.8331 1.44304C20.9427 1.60807 21.0008 1.80192 21 2.00001V6.00001C21 6.26523 20.8946 6.51958 20.7071 6.70712C20.5196 6.89465 20.2652 7.00001 20 7.00001H16C15.8023 6.99997 15.609 6.9413 15.4445 6.83141C15.2801 6.72153 15.152 6.56536 15.0763 6.38266C15.0007 6.19997 14.9809 5.99893 15.0194 5.80498C15.058 5.61103 15.1532 5.43286 15.293 5.29301L16.42 4.16601C15.0733 3.39915 13.5497 2.99723 12 3.00001C10.22 3.00001 8.47992 3.52785 6.99987 4.51678C5.51983 5.50572 4.36628 6.91132 3.68509 8.55586C3.0039 10.2004 2.82567 12.01 3.17294 13.7558C3.5202 15.5017 4.37737 17.1053 5.63604 18.364C6.89472 19.6226 8.49836 20.4798 10.2442 20.8271C11.99 21.1743 13.7996 20.9961 15.4442 20.3149C17.0887 19.6337 18.4943 18.4802 19.4832 17.0001C20.4722 15.5201 21 13.78 21 12C21 11.7348 21.1054 11.4804 21.2929 11.2929C21.4804 11.1054 21.7348 11 22 11C22.2652 11 22.5196 11.1054 22.7071 11.2929C22.8946 11.4804 23 11.7348 23 12Z" fill="white"/>
</svg>
