<svg width="24" height="24" viewBox="0 0 24 24" fill="none" xmlns="http://www.w3.org/2000/svg">
<path d="M12 8C11.2089 8 10.4355 8.2346 9.77772 8.67412C9.11992 9.11365 8.60723 9.73836 8.30448 10.4693C8.00173 11.2002 7.92252 12.0044 8.07686 12.7804C8.2312 13.5563 8.61216 14.269 9.17157 14.8284C9.73098 15.3878 10.4437 15.7688 11.2196 15.9231C11.9956 16.0775 12.7998 15.9983 13.5307 15.6955C14.2616 15.3928 14.8864 14.8801 15.3259 14.2223C15.7654 13.5645 16 12.7911 16 12C16 10.9391 15.5786 9.92172 14.8284 9.17157C14.0783 8.42143 13.0609 8 12 8ZM12 14C11.6044 14 11.2178 13.8827 10.8889 13.6629C10.56 13.4432 10.3036 13.1308 10.1522 12.7654C10.0009 12.3999 9.96126 11.9978 10.0384 11.6098C10.1156 11.2219 10.3061 10.8655 10.5858 10.5858C10.8655 10.3061 11.2219 10.1156 11.6098 10.0384C11.9978 9.96126 12.3999 10.0009 12.7654 10.1522C13.1308 10.3036 13.4432 10.56 13.6629 10.8889C13.8827 11.2178 14 11.6044 14 12C14 12.5304 13.7893 13.0391 13.4142 13.4142C13.0391 13.7893 12.5304 14 12 14ZM20.99 9H19.415C19.407 8.978 19.379 8.893 19.369 8.871L20.479 7.761C20.8555 7.38395 21.067 6.87286 21.067 6.34C21.067 5.80714 20.8555 5.29605 20.479 4.919L19.079 3.519C18.8927 3.33207 18.6712 3.18388 18.4273 3.08296C18.1834 2.98204 17.9219 2.9304 17.658 2.931C17.3944 2.93066 17.1333 2.98243 16.8898 3.08335C16.6463 3.18426 16.4251 3.33231 16.239 3.519L15.07 4.612L15 4.58V3.009C14.9995 2.47617 14.7875 1.96533 14.4106 1.58865C14.0338 1.21198 13.5228 1.00026 12.99 1H11.01C10.4772 1.00026 9.96622 1.21198 9.58936 1.58865C9.2125 1.96533 9.00053 2.47617 9 3.009V4.566L8.914 4.615L8.871 4.631L7.765 3.522C7.57886 3.33501 7.35756 3.1867 7.11385 3.08562C6.87014 2.98453 6.60884 2.93266 6.345 2.933C6.08106 2.9324 5.81961 2.98404 5.57573 3.08496C5.33184 3.18588 5.11034 3.33407 4.924 3.521L3.524 4.921C3.14747 5.29805 2.93598 5.80914 2.93598 6.342C2.93598 6.87486 3.14747 7.38595 3.524 7.763L4.624 8.906C4.611 8.935 4.591 8.969 4.581 8.999H3.01C2.477 8.99926 1.9659 9.21112 1.58901 9.58801C1.21212 9.9649 1.00026 10.476 1 11.009V12.991C1.00053 13.5238 1.2125 14.0347 1.58936 14.4113C1.96622 14.788 2.47717 14.9997 3.01 15H4.585C4.593 15.022 4.621 15.107 4.631 15.129L3.521 16.239C3.14447 16.6161 2.93298 17.1271 2.93298 17.66C2.93298 18.1929 3.14447 18.7039 3.521 19.081L4.921 20.481C5.30395 20.8462 5.81282 21.05 6.342 21.05C6.87118 21.05 7.38005 20.8462 7.763 20.481L8.878 19.366C8.9 19.377 8.978 19.413 8.999 19.422V20.993C9.00006 21.5257 9.2124 22.0361 9.58942 22.4124C9.96644 22.7887 10.4773 23 11.01 23H12.99C13.5228 22.9997 14.0338 22.788 14.4106 22.4113C14.7875 22.0347 14.9995 21.5238 15 20.991V19.434L15.129 19.369L16.238 20.478C16.6209 20.8437 17.13 21.0478 17.6595 21.0478C18.189 21.0478 18.6981 20.8437 19.081 20.478L20.481 19.078C20.8575 18.7009 21.069 18.1899 21.069 17.657C21.069 17.1241 20.8575 16.6131 20.481 16.236L19.381 15.093C19.394 15.064 19.414 15.03 19.424 15H20.99C21.5228 14.9997 22.0338 14.788 22.4106 14.4113C22.7875 14.0347 22.9995 13.5238 23 12.991V11.009C22.9995 10.4762 22.7875 9.96533 22.4106 9.58865C22.0338 9.21198 21.5228 9.00027 20.99 9ZM20.99 13H19.421C19.0163 13.0119 18.6237 13.1405 18.2904 13.3704C17.9571 13.6002 17.6974 13.9215 17.5425 14.2956C17.3876 14.6697 17.3441 15.0805 17.4173 15.4787C17.4905 15.8769 17.6772 16.2455 17.955 16.54L19.064 17.664L17.65 19.064L16.54 17.955C16.2455 17.6773 15.8771 17.4905 15.479 17.4173C15.0809 17.3441 14.6701 17.3875 14.296 17.5422C13.922 17.697 13.6007 17.9566 13.3708 18.2898C13.1408 18.6229 13.0121 19.0154 13 19.42L12.99 21L11 20.991V19.42C10.995 19.0118 10.8679 18.6144 10.6349 18.2791C10.4019 17.9438 10.0739 17.686 9.693 17.539C9.43437 17.4314 9.15712 17.3757 8.877 17.375C8.61429 17.3739 8.35393 17.4245 8.1108 17.524C7.86767 17.6236 7.64652 17.77 7.46 17.955L6.336 19.064L4.936 17.65L6.044 16.542C6.32239 16.2476 6.50967 15.879 6.58326 15.4805C6.65685 15.0821 6.61361 14.6709 6.45875 14.2965C6.30389 13.9221 6.04403 13.6005 5.7105 13.3704C5.37696 13.1404 4.984 13.0117 4.579 13L3 12.991L3.01 11H4.579C4.98369 10.9881 5.37632 10.8595 5.70961 10.6296C6.04289 10.3998 6.30263 10.0785 6.45753 9.70439C6.61244 9.33033 6.65592 8.91947 6.58273 8.52127C6.50953 8.12308 6.3228 7.75453 6.045 7.46L4.936 6.336L6.35 4.936L7.46 6.045C7.7482 6.32717 8.11359 6.51758 8.50997 6.59216C8.90636 6.66674 9.31595 6.62214 9.687 6.464L9.705 6.457C10.0832 6.30865 10.4085 6.05075 10.6393 5.71634C10.87 5.38193 10.9956 4.98625 11 4.58L11.01 3L13 3.009V4.58C12.9999 4.97423 13.1163 5.35968 13.3347 5.68795C13.553 6.01621 13.8634 6.27263 14.227 6.425C14.253 6.438 14.284 6.452 14.314 6.464C14.6849 6.62219 15.0943 6.66681 15.4906 6.59223C15.8868 6.51765 16.252 6.3272 16.54 6.045L17.664 4.936L19.064 6.35L17.956 7.458C17.6776 7.75239 17.4903 8.12102 17.4167 8.51946C17.3431 8.91789 17.3864 9.3291 17.5412 9.70351C17.6961 10.0779 17.956 10.3995 18.2895 10.6296C18.623 10.8596 19.016 10.9883 19.421 11H20.99L21 11.009L20.99 13Z" fill="white"/>
</svg>
