<svg width="24" height="24" viewBox="0 0 24 24" fill="none" xmlns="http://www.w3.org/2000/svg">
<path d="M19 9C19.7911 9 20.5645 8.76541 21.2223 8.32588C21.8801 7.88635 22.3928 7.26164 22.6955 6.53074C22.9983 5.79983 23.0775 4.99556 22.9231 4.21964C22.7688 3.44372 22.3878 2.73098 21.8284 2.17157C21.269 1.61216 20.5563 1.2312 19.7804 1.07686C19.0044 0.92252 18.2002 1.00173 17.4693 1.30448C16.7384 1.60723 16.1136 2.11992 15.6741 2.77772C15.2346 3.43552 15 4.20888 15 5C15.0053 5.37724 15.0649 5.75175 15.177 6.112L8.061 9.456C7.537 8.82021 6.82947 8.36174 6.03508 8.14324C5.24069 7.92474 4.39821 7.95686 3.62277 8.23523C2.84733 8.5136 2.17676 9.02462 1.70271 9.69847C1.22865 10.3723 0.974243 11.1761 0.974243 12C0.974243 12.8239 1.22865 13.6277 1.70271 14.3015C2.17676 14.9754 2.84733 15.4864 3.62277 15.7648C4.39821 16.0431 5.24069 16.0753 6.03508 15.8568C6.82947 15.6383 7.537 15.1798 8.061 14.544L15.177 17.888C15.0649 18.2483 15.0053 18.6228 15 19C14.9977 19.927 15.3167 20.8261 15.9026 21.5444C16.4885 22.2628 17.3052 22.7559 18.2137 22.94C19.1222 23.1241 20.0664 22.9877 20.8857 22.5541C21.705 22.1205 22.3488 21.4164 22.7076 20.5617C23.0663 19.7069 23.1178 18.7543 22.8533 17.8658C22.5889 16.9774 22.0248 16.208 21.257 15.6886C20.4892 15.1691 19.5652 14.9317 18.6421 15.0168C17.7191 15.1018 16.854 15.504 16.194 16.155L8.925 12.74C9.02501 12.2521 9.02501 11.7489 8.925 11.261L16.194 7.845C16.9407 8.58461 17.949 8.99968 19 9ZM19 3C19.3956 3 19.7822 3.1173 20.1111 3.33706C20.44 3.55683 20.6964 3.86918 20.8478 4.23463C20.9991 4.60009 21.0387 5.00222 20.9616 5.39018C20.8844 5.77814 20.6939 6.13451 20.4142 6.41422C20.1345 6.69392 19.7781 6.8844 19.3902 6.96157C19.0022 7.03874 18.6001 6.99914 18.2346 6.84776C17.8692 6.69639 17.5568 6.44004 17.3371 6.11114C17.1173 5.78224 17 5.39556 17 5C17 4.46957 17.2107 3.96086 17.5858 3.58579C17.9609 3.21072 18.4696 3 19 3ZM5 14C4.60444 14 4.21776 13.8827 3.88886 13.6629C3.55996 13.4432 3.30362 13.1308 3.15224 12.7654C3.00086 12.3999 2.96126 11.9978 3.03843 11.6098C3.1156 11.2219 3.30608 10.8655 3.58579 10.5858C3.86549 10.3061 4.22186 10.1156 4.60982 10.0384C4.99778 9.96126 5.39991 10.0009 5.76537 10.1522C6.13082 10.3036 6.44318 10.56 6.66294 10.8889C6.8827 11.2178 7 11.6044 7 12C7 12.5304 6.78929 13.0391 6.41421 13.4142C6.03914 13.7893 5.53043 14 5 14ZM19 17C19.3956 17 19.7822 17.1173 20.1111 17.3371C20.44 17.5568 20.6964 17.8692 20.8478 18.2346C20.9991 18.6001 21.0387 19.0022 20.9616 19.3902C20.8844 19.7781 20.6939 20.1345 20.4142 20.4142C20.1345 20.6939 19.7781 20.8844 19.3902 20.9616C19.0022 21.0387 18.6001 20.9991 18.2346 20.8478C17.8692 20.6964 17.5568 20.44 17.3371 20.1111C17.1173 19.7822 17 19.3956 17 19C17 18.4696 17.2107 17.9609 17.5858 17.5858C17.9609 17.2107 18.4696 17 19 17Z" fill="white"/>
</svg>
