<svg width="24" height="28" viewBox="0 0 24 28" fill="none" xmlns="http://www.w3.org/2000/svg">
<g clip-path="url(#clip0_1_2707)">
<path d="M7.5 11.5703L7.50007 11.5M1.49997 10.3L1.49998 13.6871C1.49998 14.4416 1.49998 14.8189 1.58725 15.1727C1.6646 15.4864 1.79212 15.7856 1.96487 16.0586C2.15975 16.3665 2.43194 16.6278 2.97633 17.1502L10.1073 23.994C11.2972 25.1359 11.8922 25.7069 12.5709 25.9167C13.1682 26.1013 13.8081 26.0947 14.4015 25.8979C15.0758 25.6742 15.6589 25.0911 16.8251 23.9249L19.9249 20.8251C21.0911 19.6589 21.6742 19.0758 21.8979 18.4015C22.0947 17.8082 22.1013 17.1682 21.9167 16.5709C21.7069 15.8922 21.1359 15.2972 19.994 14.1073L13.1503 6.97636C12.6278 6.43197 12.3666 6.15977 12.0586 5.96489C11.7856 5.79214 11.4865 5.66462 11.1728 5.58726C10.8189 5.5 10.4417 5.5 9.68712 5.5L6.29997 5.5C4.61981 5.5 3.77973 5.5 3.13799 5.82698C2.5735 6.1146 2.11456 6.57355 1.82694 7.13803C1.49996 7.77977 1.49996 8.61985 1.49997 10.3Z" stroke="white" stroke-width="2" stroke-linecap="round"/>
</g>
<defs>
<clipPath id="clip0_1_2707">
<rect width="24" height="24" fill="white" transform="translate(0 4)"/>
</clipPath>
</defs>
</svg>
