<svg width="24" height="24" viewBox="0 0 24 24" fill="none" xmlns="http://www.w3.org/2000/svg">
<path d="M1.99999 2.99998L1.99999 21C1.99991 21.1705 2.04342 21.3381 2.12637 21.4871C2.20933 21.636 2.32898 21.7612 2.47396 21.8509C2.61894 21.9406 2.78445 21.9917 2.95475 21.9994C3.12505 22.0071 3.2945 21.9712 3.44699 21.895L21.447 12.895C21.602 12.8026 21.7303 12.6715 21.8194 12.5146C21.9085 12.3577 21.9554 12.1804 21.9554 12C21.9554 11.8195 21.9085 11.6422 21.8194 11.4853C21.7303 11.3284 21.602 11.1974 21.447 11.105L3.44699 2.10498C3.2945 2.02878 3.12505 1.99282 2.95475 2.00054C2.78445 2.00825 2.61894 2.05937 2.47396 2.14905C2.32898 2.23872 2.20933 2.36397 2.12637 2.5129C2.04342 2.66184 1.99991 2.8295 1.99999 2.99998ZM18.764 12L3.99999 19.382L3.99999 4.61798L18.764 12Z" fill="white"/>
</svg>
