<svg width="26" height="20" viewBox="0 0 26 20" fill="none" xmlns="http://www.w3.org/2000/svg">
<path d="M0.508515 10.9427C0.289799 10.6927 0.166931 10.3536 0.166931 10.0001C0.166931 9.6465 0.289799 9.30743 0.508515 9.05739L7.50852 1.05739C7.72855 0.814511 8.02325 0.680118 8.32915 0.683156C8.63505 0.686194 8.92766 0.826419 9.14397 1.07363C9.36028 1.32084 9.48298 1.65526 9.48564 2.00485C9.48829 2.35445 9.3707 2.69125 9.15818 2.94272L4.14968 8.66672H24.6667C24.9761 8.66672 25.2729 8.8072 25.4916 9.05725C25.7104 9.3073 25.8334 9.64643 25.8334 10.0001C25.8334 10.3537 25.7104 10.6928 25.4916 10.9429C25.2729 11.1929 24.9761 11.3334 24.6667 11.3334H4.14968L9.15818 17.0574C9.3707 17.3089 9.48829 17.6457 9.48564 17.9953C9.48298 18.3449 9.36028 18.6793 9.14397 18.9265C8.92766 19.1737 8.63505 19.3139 8.32915 19.317C8.02325 19.32 7.72855 19.1856 7.50852 18.9427L0.508515 10.9427Z" fill="white"/>
</svg>
